<svg xmlns="http://www.w3.org/2000/svg" width="292.868" height="359.123" viewBox="0 0 292.868 359.123">
  <g id="cup-01" transform="translate(-383.02 -351.04)">
    <path id="Path_7" data-name="Path 7" d="M646.48,526.44c-7.3-3-14.78-3.45-22.51-2.72-1.83.18-5.31,1.31-5-2.09.69-6.93-3.82-5.91-7.86-5.91H539.25c-31.6,0-63.21.11-94.81-.07-4.73,0-6.11,1.59-5.67,6,.47,4.78.45,9.62.67,14.43,1.75,37.93,9.34,74.39,27.23,108.28a7.43,7.43,0,0,1,.54,7c-2.67-3.51-5.5-6.92-8-10.56a224.142,224.142,0,0,1-25.64-51.06A270.216,270.216,0,0,1,419,523.91c-1-10.21.48-7.52-9.18-8.41-4.12-.37-5.69.82-5.59,5.46.56,25.6,4.39,50.68,12.49,74.92,8.82,26.41,21.23,50.94,42.46,69.85,3.13,2.8,5.83,5.27,5.86,8.42a1.89,1.89,0,0,1-1.5,1.86c-8.3,1.81-13.26,4.11-13.26,6.61,0,1.4,1.55,2.73,4.37,4h-.26c-21.43.85-42.83,2.18-63.86,6.77-3,.65-7.49.95-7.51,4.39s4.49,3.67,7.47,4.33c21.37,4.69,43.15,5.63,64.88,6.64,53.88,2.51,107.71,1.93,161.4-3.81,7.29-.77,14.52-1.9,21.31-4.83,1.09-.47,2.73-1,2.48-2.69-.18-1.25-1.37-1.86-2.49-2.21a85.977,85.977,0,0,0-9.06-2.66c-19.29-3.8-38.86-4.9-58.43-6l-1.72-.09c2.67-1.19,4.14-2.49,4.14-3.85,0-2.49-4.94-4.78-13.2-6.59a3,3,0,0,1-2.33-2.29c-.32-1.88,1.32-3.29,3.2-4.89,14.63-12.37,25.41-27.74,34-44.69a5.11,5.11,0,0,1,4.49-3.12c14.31-2,28.85-3.15,42.84-6.51,19.17-4.61,32.84-22.33,33.8-41.13C677,552.05,665.84,534.4,646.48,526.44Zm9.37,65.46c-5,6.08-11,10.05-18.65,11.37q-14.7,2.54-29.48,4.56c-5,.69-5.68-.2-3.78-5.12,7-18.24,10.81-37.21,13.33-56.5a2.988,2.988,0,0,1,.09-.49c1.42-10.07,1.42-10.07,14.51-10.25,11.8.41,22.89,6.69,28.83,20.14C666.36,568.42,665.05,580.68,655.85,591.9Z" fill="#ff8c32"/>
    <path id="Path_8" data-name="Path 8" d="M536,507.14a71.249,71.249,0,0,0,2.59-12.38c1.76-14.05.39-30.15-3.22-41.94-3.85-12.53-10.66-24-13.51-36.92-3.82-17.27-4.08-34.3,3.43-50.76,2.4-5.26,5.34-10.25,9.83-14.1h0c-.34.93-.69,1.86-1,2.78L533,356.59c-.71,1.85-1.43,3.71-2.07,5.58a46.373,46.373,0,0,0-2.64,11.59c-1.09,13.73,4,26.08,8.53,38.58,5.53,15.29,12.79,30,15.42,46.23q.11.6.18,1.2c.12.83.22,1.67.3,2.5A53.06,53.06,0,0,1,536,507.14Z" fill="#ff8c32"/>
    <path id="Path_9" data-name="Path 9" d="M495.73,379.73c-4,21.58.5,41.84,9.29,61.55,6.28,14.08,10.52,28.69,10,44.35a64.109,64.109,0,0,1-2,12.79c-.22.95-.23,2.19-1.6,2.05s-1.12-1.38-1-2.32c1.68-13.22-1.52-25.67-6.08-37.87-5.4-14.44-12.29-28.37-13.6-44.1C489.71,403.64,490,391.37,495.73,379.73Z" fill="#ff8c32"/>
  </g>
</svg>
