<svg xmlns="http://www.w3.org/2000/svg" width="681.606" height="551.942" viewBox="0 0 681.606 551.942">
  <g id="Group_23" data-name="Group 23" transform="translate(-533 -1038)">
    <g id="cup-01" transform="translate(344.349 783.369)">
      <path id="Path_7" data-name="Path 7" d="M646.48,526.44c-7.3-3-14.78-3.45-22.51-2.72-1.83.18-5.31,1.31-5-2.09.69-6.93-3.82-5.91-7.86-5.91H539.25c-31.6,0-63.21.11-94.81-.07-4.73,0-6.11,1.59-5.67,6,.47,4.78.45,9.62.67,14.43,1.75,37.93,9.34,74.39,27.23,108.28a7.43,7.43,0,0,1,.54,7c-2.67-3.51-5.5-6.92-8-10.56a224.142,224.142,0,0,1-25.64-51.06A270.216,270.216,0,0,1,419,523.91c-1-10.21.48-7.52-9.18-8.41-4.12-.37-5.69.82-5.59,5.46.56,25.6,4.39,50.68,12.49,74.92,8.82,26.41,21.23,50.94,42.46,69.85,3.13,2.8,5.83,5.27,5.86,8.42a1.89,1.89,0,0,1-1.5,1.86c-8.3,1.81-13.26,4.11-13.26,6.61,0,1.4,1.55,2.73,4.37,4h-.26c-21.43.85-42.83,2.18-63.86,6.77-3,.65-7.49.95-7.51,4.39s4.49,3.67,7.47,4.33c21.37,4.69,43.15,5.63,64.88,6.64,53.88,2.51,107.71,1.93,161.4-3.81,7.29-.77,14.52-1.9,21.31-4.83,1.09-.47,2.73-1,2.48-2.69-.18-1.25-1.37-1.86-2.49-2.21a85.977,85.977,0,0,0-9.06-2.66c-19.29-3.8-38.86-4.9-58.43-6l-1.72-.09c2.67-1.19,4.14-2.49,4.14-3.85,0-2.49-4.94-4.78-13.2-6.59a3,3,0,0,1-2.33-2.29c-.32-1.88,1.32-3.29,3.2-4.89,14.63-12.37,25.41-27.74,34-44.69a5.11,5.11,0,0,1,4.49-3.12c14.31-2,28.85-3.15,42.84-6.51,19.17-4.61,32.84-22.33,33.8-41.13C677,552.05,665.84,534.4,646.48,526.44Zm9.37,65.46c-5,6.08-11,10.05-18.65,11.37q-14.7,2.54-29.48,4.56c-5,.69-5.68-.2-3.78-5.12,7-18.24,10.81-37.21,13.33-56.5a2.988,2.988,0,0,1,.09-.49c1.42-10.07,1.42-10.07,14.51-10.25,11.8.41,22.89,6.69,28.83,20.14C666.36,568.42,665.05,580.68,655.85,591.9Z" fill="#ff8c32"/>
      <path id="Path_8" data-name="Path 8" d="M536,507.14a71.249,71.249,0,0,0,2.59-12.38c1.76-14.05.39-30.15-3.22-41.94-3.85-12.53-10.66-24-13.51-36.92-3.82-17.27-4.08-34.3,3.43-50.76,2.4-5.26,5.34-10.25,9.83-14.1h0c-.34.93-.69,1.86-1,2.78L533,356.59c-.71,1.85-1.43,3.71-2.07,5.58a46.373,46.373,0,0,0-2.64,11.59c-1.09,13.73,4,26.08,8.53,38.58,5.53,15.29,12.79,30,15.42,46.23q.11.6.18,1.2c.12.83.22,1.67.3,2.5A53.06,53.06,0,0,1,536,507.14Z" fill="#ff8c32"/>
      <path id="Path_9" data-name="Path 9" d="M495.73,379.73c-4,21.58.5,41.84,9.29,61.55,6.28,14.08,10.52,28.69,10,44.35a64.109,64.109,0,0,1-2,12.79c-.22.95-.23,2.19-1.6,2.05s-1.12-1.38-1-2.32c1.68-13.22-1.52-25.67-6.08-37.87-5.4-14.44-12.29-28.37-13.6-44.1C489.71,403.64,490,391.37,495.73,379.73Z" fill="#ff8c32"/>
    </g>
    <g id="cyrcle-01" transform="translate(344.444 782.441)">
      <g id="fork">
        <path id="Path_10" data-name="Path 10" d="M751.13,683.49c-4.54-6.49-9.13-13-13.89-19.7-10.85,19.79-23.83,37.71-39.82,53.13-57.79,55.72-126.61,79.35-206.21,67.29-68.44-10.37-122.28-45.42-161.54-102.35-21.58-31.3-34.32-66.18-39-103.92-1.26-10.19-2.64-20.42-1-30.77.47-3,1.72-4.47,4.66-5.43,27.22-8.9,44.49-33.61,43.82-62.23q-1.47-63.35-2.83-126.68a136.207,136.207,0,0,0-.78-14.43c-.76-5.85-4.2-10-9.62-12.38-11.73-5.19-23.72,2.79-23.56,16,.35,28.78,1,57.54,1.48,86.31.11,7.12-4.19,11.85-10.54,12.11-6.1.24-11-4.51-11.64-11.27-.11-1.16,0-2.33-.07-3.49-.69-27.76-1.33-55.53-2.09-83.29-.23-8.63-6.15-15.41-13.91-16.35-9.58-1.15-16.67,3.59-19.27,12.67-.85,3-.59,5.94-.53,8.91q.88,40.65,1.92,81.29c.11,4.27-.81,8-4.42,10.51S235,442.76,231,440.7c-4.41-2.26-6.44-5.91-6.54-10.89-.61-28.1-1.33-56.19-1.94-84.29-.13-6.15-1.85-11.51-7.07-15.16-5.64-3.94-11.76-4.62-17.88-1.32-6.67,3.6-9.23,9.52-9,17q1.65,67.33,3.13,134.67c.73,31.53,17.63,53.71,47.88,62.82,1.47.44,2.8.56,3.09,2.56.47,3.11,1.58,6.14,1.88,9.26,4,41.29,15.92,80.19,37.6,115.52C333,753.76,407.55,799.3,504.35,806.71c58.89,4.51,113.76-10.39,164.07-41.41a272.2,272.2,0,0,0,81.38-77.53C750.57,686.57,752.5,685.45,751.13,683.49ZM222.45,525.66c-12.21-8.51-19.74-19.73-22.71-34-1.93-9.35-1.38-18.88-1.72-28.32-1.38-37.89-2.37-75.78-3.6-113.67-.2-6.36,1.83-11.53,7.37-14.76,5-2.91,10.11-2.76,15.44.86C206,339.88,204.4,342.29,204.57,354c.6,43.22,1.3,86.44,1.7,129.67.15,14.83,4.74,27.66,15,38.41C222.07,522.92,223,523.7,222.45,525.66Z" fill="#f4f4f4"/>
        <path id="Path_11" data-name="Path 11" d="M217.23,335.73C206,339.88,204.4,342.29,204.57,354c.6,43.22,1.3,86.44,1.7,129.67.15,14.83,4.74,27.66,15,38.41.81.84,1.71,1.62,1.19,3.58-12.21-8.51-19.74-19.73-22.71-34-1.93-9.35-1.38-18.88-1.72-28.32-1.38-37.89-2.37-75.78-3.6-113.67-.2-6.36,1.83-11.53,7.37-14.76C206.76,332,211.9,332.11,217.23,335.73Z" fill="#f4f4f4"/>
      </g>
      <g id="spone" transform="translate(0 4)">
        <path id="Path_12" data-name="Path 12" d="M843,671.91c-4.55,10.47-11.14,19.67-21.47,25.49-6.77,3.81-13,4.57-21.14,2.31,20.67-9.73,29.37-27.84,35.73-47.15,10-30.31,12.64-61.41,6.35-92.87-3.59-18-10.85-34.12-26.32-45.59,2.18-.94,3.66.41,5.25,1.34,15.57,9.11,24.51,23.36,29.17,40.08C861.61,595.09,859.45,634.08,843,671.91Z" fill="#f4f4f4"/>
        <path id="Path_13" data-name="Path 13" d="M862.49,553c-8-26.95-24.35-46-52.79-51.67a11.373,11.373,0,0,0,.07-1.31,14.55,14.55,0,0,0-12.3-14.37,37.58,37.58,0,0,1-3.9-10.34c-9.36-48.21-30-91.31-62.6-128.26-50.2-56.87-113.5-88.35-188.89-94.57C489.72,248.2,440,258.92,393.17,283A276.46,276.46,0,0,0,340,318.76c-1.12,1-4,2-1.95,4.11,7.23,7.38,7.59,16.55,7.51,26-.12,14.22,0,28.43,0,42.35,1.58.31,1.8.41,1.86.35.6-.57,1.2-1.15,1.75-1.76,29.76-33.19,65.77-56.79,108.5-69.64,66.72-20.06,130.71-12.81,190.85,22.12,56.88,33,93.39,82.28,110.76,145.69a11.51,11.51,0,0,1,.58,5.1,14.59,14.59,0,0,0-5.4,17.54c-23.6,13.46-33.2,34.72-33.56,60.94-.37,27.07,7.59,52.09,19.63,75.94C750.84,668,763.81,686.69,783,700c12.78,8.86,26.66,13.92,42.21,7.4,14.73-6.17,23.51-18.3,29.64-32.22C872.34,635.5,874.79,594.5,862.49,553ZM843,671.91c-4.55,10.47-11.14,19.67-21.47,25.49-6.77,3.81-13,4.57-21.14,2.31,20.67-9.73,29.37-27.84,35.73-47.15,10-30.31,12.64-61.41,6.35-92.87-3.59-18-10.85-34.12-26.32-45.59,2.18-.94,3.66.41,5.25,1.34,15.57,9.11,24.51,23.36,29.17,40.08C861.61,595.09,859.45,634.08,843,671.91Z" fill="#f4f4f4"/>
      </g>
    </g>
  </g>
</svg>
